#!OML:ASF X:\für Bonn\!DataBase\2005_08_11_Bastian_Final\c3d\Bastian.ASF
:FULLY-SPECIFIED
:DEGREES
68
root -0.130759 17.3013 23.4317 -911.126 -15.4192 -896.552
lowerback 7.7556 -3.50898 -2.68414
upperback 6.6861 -5.50519 1.90011
thorax 3.04607 -3.19081 3.70701
lowerneck -19.6017 -5.94986 -3.01654
upperneck 13.0742 -8.73981 7.4532
head 7.71739 -3.68432 1.85119
rclavicle -4.82239e-014 8.39865e-015
rhumerus -36.8213 -1.927 -85.3646
rradius 27.0487
rwrist -3.42998
rhand -11.4335 4.45761
rfingers 7.12502
rthumb 14.6028 -25.0083
lclavicle -4.82239e-014 8.39865e-015
lhumerus -199.492 -189.234 266.509
lradius 12.1977
lwrist 5.09908
lhand -10.4561 -9.57657
lfingers 7.12502
lthumb 15.5444 19.8187
rfemur -0.0108066 1.08621 27.7689
rtibia 32.7297
rfoot -17.8428 -21.0036
rtoes 11.1965
lfemur 12.3497 3.38119 -13.8195
ltibia 20.4288
lfoot -15.2664 -0.29003
ltoes -19.7258
69
root -0.121866 17.2995 23.4193 -911.151 -15.5524 -896.572
lowerback 7.81969 -3.48922 -2.64069
upperback 6.70077 -5.48058 1.89494
thorax 3.01915 -3.1778 3.68129
lowerneck -19.6261 -5.9797 -3.0177
upperneck 13.0686 -8.76712 7.40573
head 7.71856 -3.70021 1.83182
rclavicle -9.25094e-014 2.01766e-014
rhumerus -36.8036 -1.91149 -85.3843
rradius 27.1511
rwrist -3.46566
rhand -11.4562 4.48099
rfingers 7.12502
rthumb 14.581 -24.9865
lclavicle -9.25094e-014 2.01766e-014
lhumerus -199.558 -188.999 266.394
lradius 12.0748
lwrist 4.6083
lhand -10.4002 -9.55939
lfingers 7.12502
lthumb 15.5982 19.8317
rfemur 0.10292 1.13741 27.8131
rtibia 32.6677
rfoot -17.9401 -21.1773
rtoes 11.4674
lfemur 12.1469 3.29695 -13.8146
ltibia 20.8709
lfoot -15.4244 -0.284949
ltoes -19.9664
70
root -0.113626 17.2987 23.4077 -911.174 -15.7031 -896.569
lowerback 7.87429 -3.47607 -2.58267
upperback 6.72643 -5.46659 1.91028
thorax 3.0108 -3.17152 3.66768
lowerneck -19.6549 -6.01783 -3.05635
upperneck 13.0357 -8.79666 7.38014
head 7.71429 -3.71738 1.82539
rclavicle -6.4605e-016 -1.35671e-014
rhumerus -36.738 -1.96151 -85.3644
rradius 27.235
rwrist -3.48634
rhand -11.4669 4.47683
rfingers 7.12502
rthumb 14.5707 -24.9914
lclavicle -6.4605e-016 -1.35671e-014
lhumerus -199.569 -189.151 266.199
lradius 11.8347
lwrist 3.74194
lhand -10.3287 -9.68637
lfingers 7.12502
lthumb 15.6671 19.6993
rfemur 0.20702 1.12071 27.8564
rtibia 32.6024
rfoot -18.057 -21.2782
rtoes 11.8691
lfemur 11.8822 3.18124 -13.7968
ltibia 21.382
lfoot -15.5919 -0.304688
ltoes -20.0694
71
root -0.105036 17.2977 23.3968 -911.205 -15.8598 -896.617
lowerback 7.97065 -3.44644 -2.5656
upperback 6.74523 -5.43258 1.91484
thorax 2.97335 -3.15582 3.66865
lowerneck -19.6722 -6.0771 -3.13353
upperneck 13.0259 -8.84966 7.37089
head 7.71954 -3.74573 1.82734
rclavicle 7.05437e-014 -2.08724e-014
rhumerus -36.7162 -1.96288 -85.3585
rradius 27.3474
rwrist -3.54587
rhand -11.5162 4.49392
rfingers 7.12502
rthumb 14.5232 -24.9777
lclavicle 7.05437e-014 -2.08724e-014
lhumerus -199.621 -189.187 266.031
lradius 11.638
lwrist 3.01213
lhand -10.2895 -9.7798
lfingers 7.12502
lthumb 15.7049 19.6029
rfemur 0.334994 1.11987 27.8468
rtibia 32.5251
rfoot -18.1505 -21.3982
rtoes 12.002
lfemur 11.596 3.08001 -13.8299
ltibia 21.9865
lfoot -15.7785 -0.331207
ltoes -20.151
72
root -0.096303 17.2985 23.3858 -911.236 -16.0164 -896.612
lowerback 8.04916 -3.4247 -2.48911
upperback 6.76973 -5.40632 1.92326
thorax 2.94712 -3.14227 3.63913
lowerneck -19.6666 -6.12282 -3.16982
upperneck 12.9819 -8.88922 7.3414
head 7.70599 -3.7691 1.81877
rclavicle -2.2003e-014 -3.37934e-015
rhumerus -36.6575 -2.16108 -85.2958
rradius 27.3978
rwrist -3.34825
rhand -11.4915 4.52849
rfingers 7.12502
rthumb 14.547 -24.9415
lclavicle -2.2003e-014 -3.37934e-015
lhumerus -199.644 -189.454 265.78
lradius 11.4072
lwrist 2.06001
lhand -10.2687 -9.87254
lfingers 7.12502
lthumb 15.7248 19.5086
rfemur 0.450536 1.11418 27.8995
rtibia 32.4374
rfoot -18.2202 -21.5478
rtoes 12.2351
lfemur 11.2512 2.96557 -13.8092
ltibia 22.6697
lfoot -15.8653 -0.346799
ltoes -20.3175
73
root -0.0875302 17.3002 23.3756 -911.266 -16.1821 -896.63
lowerback 8.13812 -3.40524 -2.44291
upperback 6.79802 -5.38656 1.94449
thorax 2.92405 -3.13427 3.6405
lowerneck -19.6659 -6.1694 -3.25735
upperneck 12.9293 -8.91599 7.32339
head 7.69258 -3.7874 1.8238
rclavicle -1.64743e-014 -5.06901e-015
rhumerus -36.5952 -2.26779 -85.23
rradius 27.461
rwrist -3.24811
rhand -11.4731 4.57727
rfingers 7.12502
rthumb 14.5647 -24.8914
lclavicle -1.64743e-014 -5.06901e-015
lhumerus -199.656 -189.631 265.588
lradius 11.1991
lwrist 1.39176
lhand -10.236 -9.95428
lfingers 7.12502
lthumb 15.7564 19.4244
rfemur 0.576767 1.0546 27.9091
rtibia 32.3407
rfoot -18.3145 -21.608
rtoes 12.4979
lfemur 10.8618 2.89569 -13.7954
ltibia 23.4349
lfoot -15.8508 -0.373589
ltoes -20.5302
74
root -0.0793565 17.3008 23.3662 -911.271 -16.3354 -896.681
lowerback 8.21771 -3.373 -2.40666
upperback 6.82565 -5.34825 1.94405
thorax 2.90255 -3.11615 3.62343
lowerneck -19.6777 -6.22727 -3.32568
upperneck 12.8921 -8.96303 7.2958
head 7.68617 -3.81471 1.8195
rclavicle -1.6847e-014 -3.97569e-015
rhumerus -36.5336 -2.38919 -85.1946
rradius 27.5412
rwrist -3.14935
rhand -11.471 4.56825
rfingers 7.12502
rthumb 14.5667 -24.9003
lclavicle -1.6847e-014 -3.97569e-015
lhumerus -199.657 -189.987 265.339
lradius 10.9622
lwrist 0.541481
lhand -10.2462 -10.0108
lfingers 7.12502
lthumb 15.7466 19.3686
rfemur 0.676533 0.953518 27.8664
rtibia 32.2392
rfoot -18.3249 -21.6573
rtoes 12.5094
lfemur 10.4192 2.80742 -13.8305
ltibia 24.2821
lfoot -15.8025 -0.359822
ltoes -20.705
75
root -0.072639 17.3024 23.3576 -911.31 -16.4921 -896.705
lowerback 8.33888 -3.33729 -2.32849
upperback 6.84618 -5.30362 1.94564
thorax 2.84652 -3.09284 3.58859
lowerneck -19.6353 -6.29094 -3.40829
upperneck 12.8403 -9.02051 7.29598
head 7.66857 -3.84726 1.82649
rclavicle -6.22817e-014 2.92213e-014
rhumerus -36.5339 -2.5477 -85.1385
rradius 27.6557
rwrist -3.02541
rhand -11.486 4.55684
rfingers 7.12502
rthumb 14.5523 -24.9127
lclavicle -6.22817e-014 2.92213e-014
lhumerus -199.706 -189.998 265.181
lradius 10.8061
lwrist 0.105714
lhand -10.3188 -9.96533
lfingers 7.12502
lthumb 15.6766 19.4196
rfemur 0.80106 0.850674 27.8428
rtibia 32.1453
rfoot -18.3723 -21.6876
rtoes 12.6758
lfemur 9.96575 2.63483 -13.8709
ltibia 25.188
lfoot -15.7362 -0.289357
ltoes -20.6781
76
root -0.0651384 17.3029 23.3497 -911.323 -16.624 -896.726
lowerback 8.42744 -3.302 -2.24674
upperback 6.8747 -5.25953 1.95138
thorax 2.81714 -3.07049 3.55289
lowerneck -19.6167 -6.34399 -3.48903
upperneck 12.7832 -9.05919 7.28028
head 7.65123 -3.87138 1.83005
rclavicle -2.04624e-014 1.78906e-015
rhumerus -36.4631 -2.58442 -85.1238
rradius 27.7118
rwrist -2.98279
rhand -11.4438 4.53067
rfingers 7.12502
rthumb 14.5929 -24.936
lclavicle -2.04624e-014 1.78906e-015
lhumerus -199.725 -190.292 264.963
lradius 10.6311
lwrist -0.454915
lhand -10.3329 -9.93867
lfingers 7.12502
lthumb 15.6631 19.4473
rfemur 0.883896 0.785386 27.8402
rtibia 32.0694
rfoot -18.3965 -21.7379
rtoes 12.7373
lfemur 9.45934 2.52129 -13.886
ltibia 26.1475
lfoot -15.6249 -0.24065
ltoes -20.6677
77
root -0.0590235 17.3035 23.3433 -911.347 -16.7505 -896.747
lowerback 8.55128 -3.25488 -2.15453
upperback 6.89585 -5.19938 1.9626
thorax 2.75906 -3.03941 3.51936
lowerneck -19.5659 -6.40715 -3.57972
upperneck 12.7086 -9.10825 7.26474
head 7.62377 -3.90207 1.83479
rclavicle -1.36789e-014 1.67973e-014
rhumerus -36.4384 -2.69048 -85.0671
rradius 27.7782
rwrist -2.85672
rhand -11.4246 4.52813
rfingers 7.12502
rthumb 14.6114 -24.9372
lclavicle -1.36789e-014 1.67973e-014
lhumerus -199.794 -189.971 264.929
lradius 10.6057
lwrist -0.320705
lhand -10.4144 -9.7766
lfingers 7.12502
lthumb 15.5845 19.6155
rfemur 0.958561 0.613175 27.7979
rtibia 32.0106
rfoot -18.3868 -21.7032
rtoes 12.7128
lfemur 8.9174 2.40406 -13.9109
ltibia 27.1627
lfoot -15.5107 -0.145078
ltoes -20.8676
78
root -0.0549092 17.3038 23.3381 -911.358 -16.8665 -896.771
lowerback 8.65373 -3.21415 -2.03167
upperback 6.94051 -5.14814 1.95852
thorax 2.73411 -3.01309 3.45032
lowerneck -19.6045 -6.46243 -3.65363
upperneck 12.673 -9.149 7.23432
head 7.62222 -3.92598 1.83064
rclavicle 4.33972e-014 -4.47266e-015
rhumerus -36.3461 -2.74368 -85.0531
rradius 27.8299
rwrist -2.75078
rhand -11.4309 4.51207
rfingers 7.12502
rthumb 14.6053 -24.9537
lclavicle 4.33972e-014 -4.47266e-015
lhumerus -199.787 -189.952 264.815
lradius 10.5062
lwrist -0.389082
lhand -10.4858 -9.72543
lfingers 7.12502
lthumb 15.5158 19.672
rfemur 1.00603 0.371482 27.7214
rtibia 31.9737
rfoot -18.3616 -21.5701
rtoes 12.7676
lfemur 8.33383 2.38674 -13.9117
ltibia 28.2261
lfoot -15.4063 -0.0958372
ltoes -20.7798
79
root -0.0505116 17.3025 23.3336 -911.384 -16.9845 -896.814
lowerback 8.81131 -3.1598 -1.92807
upperback 6.95574 -5.07651 1.95231
thorax 2.64818 -2.97474 3.39434
lowerneck -19.5611 -6.53424 -3.75103
upperneck 12.6287 -9.20921 7.21221
head 7.60669 -3.96186 1.83238
rclavicle 4.13969e-014 -1.22253e-014
rhumerus -36.3453 -2.69732 -85.0666
rradius 27.8997
rwrist -2.79494
rhand -11.4234 4.50021
rfingers 7.12502
rthumb 14.6126 -24.965
lclavicle 4.13969e-014 -1.22253e-014
lhumerus -199.859 -189.815 264.748
lradius 10.4625
lwrist -0.277889
lhand -10.5641 -9.57805
lfingers 7.12502
lthumb 15.4404 19.8252
rfemur 1.07494 0.195112 27.6473
rtibia 31.9491
rfoot -18.3968 -21.5119
rtoes 12.6984
lfemur 7.73664 2.47392 -13.8882
ltibia 29.3224
lfoot -15.2816 -0.193311
ltoes -20.6444
